# xmcd
#
# Track frame offsets: 
#        150
#        12795
#        26917
#        42638
#        56947
#        72364
#        89583
#        106010
#        119348
#        129549
#        142129
#        161276
#        172975
#        188203
#        202871
#        214865
#
# Disc length: 3045 seconds
#
# Revision: 0
# Processed by: cddbd v1.5.2PL0 Copyright (c) Steve Scherf et al.
# Submitted via: ExactAudioCopy v0.99pb4
#
DISCID=e90be310
DTITLE=Various Artist - Serenata A Juan Vicente Torrealba 1
DYEAR=2002
DGENRE=Latin
TTITLE0=Barquisimeto
TTITLE1=Isabel
TTITLE2=Lamento Llanero
TTITLE3=Rosario
TTITLE4=Secreto De Amor
TTITLE5=Ella Es
TTITLE6=Campesina
TTITLE7=Camino De La Esperanza
TTITLE8=Noches De Porlamar
TTITLE9=Primaveral
TTITLE10=Sabaneando
TTITLE11=Quiero Vivir
TTITLE12=Junto Al Jaguey
TTITLE13=Caraqueñita
TTITLE14=Esteras De Camaguan
TTITLE15=Madrugada Llanera
EXTD=
EXTT0=
EXTT1=
EXTT2=
EXTT3=
EXTT4=
EXTT5=
EXTT6=
EXTT7=
EXTT8=
EXTT9=
EXTT10=
EXTT11=
EXTT12=
EXTT13=
EXTT14=
EXTT15=
PLAYORDER=
